<svg width="20" height="20" viewBox="0 0 20 20" fill="none" xmlns="http://www.w3.org/2000/svg">
<rect width="20" height="20" fill="#1E1E1E"/>
<g id="Coming Soon" clip-path="url(#clip0_141_38282)">
<rect width="1440" height="1668" transform="translate(-224 -1558)" fill="#0B0214"/>
<g id="Desktop - 8">
<rect width="1440" height="614" transform="translate(-224 -504)" fill="black"/>
<g id="Frame 35491">
<g id="Group 161" opacity="0.8">
<g id="Group 162">
<g id="ic:sharp-copyright">
<path id="Vector" d="M8.4013 9.04935C8.44297 8.77435 8.53463 8.53268 8.6513 8.32435C8.76797 8.11601 8.93463 7.94101 9.14297 7.80768C9.34297 7.68268 9.59297 7.62435 9.9013 7.61601C10.093 7.62435 10.268 7.65768 10.4263 7.72435C10.593 7.79935 10.743 7.89935 10.8596 8.02435C10.9763 8.14935 11.068 8.29935 11.143 8.46601C11.218 8.63268 11.2513 8.81601 11.2596 8.99935H12.7513C12.7346 8.60768 12.6596 8.24935 12.518 7.92435C12.3763 7.59935 12.1846 7.31601 11.9346 7.08268C11.6846 6.84935 11.3846 6.66602 11.0346 6.53268C10.6846 6.39935 10.3013 6.34101 9.8763 6.34101C9.33463 6.34101 8.85963 6.43268 8.45963 6.62435C8.05963 6.81601 7.7263 7.06601 7.45963 7.39101C7.19297 7.71601 6.99297 8.09101 6.86797 8.52435C6.74297 8.95768 6.66797 9.40768 6.66797 9.89101V10.116C6.66797 10.5993 6.73463 11.0493 6.85963 11.4827C6.98463 11.916 7.18463 12.291 7.4513 12.6077C7.71797 12.9243 8.0513 13.1827 8.4513 13.366C8.8513 13.5493 9.3263 13.6493 9.86797 13.6493C10.2596 13.6493 10.6263 13.5827 10.968 13.4577C11.3096 13.3327 11.6096 13.1577 11.868 12.9327C12.1263 12.7077 12.3346 12.4493 12.4846 12.1493C12.6346 11.8493 12.7263 11.5327 12.7346 11.191H11.243C11.2346 11.366 11.193 11.5243 11.118 11.6743C11.043 11.8243 10.943 11.9493 10.818 12.0577C10.693 12.166 10.5513 12.2493 10.3846 12.3077C10.2263 12.366 10.0596 12.3827 9.88463 12.391C9.58463 12.3827 9.33463 12.3243 9.14297 12.1993C8.93463 12.066 8.76797 11.891 8.6513 11.6827C8.53463 11.4743 8.44297 11.2243 8.4013 10.9493C8.35963 10.6743 8.33463 10.391 8.33463 10.116V9.89101C8.33463 9.59935 8.35963 9.32435 8.4013 9.04935ZM10.0013 1.66602C5.4013 1.66602 1.66797 5.39935 1.66797 9.99935C1.66797 14.5993 5.4013 18.3327 10.0013 18.3327C14.6013 18.3327 18.3346 14.5993 18.3346 9.99935C18.3346 5.39935 14.6013 1.66602 10.0013 1.66602ZM10.0013 16.666C6.3263 16.666 3.33464 13.6743 3.33464 9.99935C3.33464 6.32435 6.3263 3.33268 10.0013 3.33268C13.6763 3.33268 16.668 6.32435 16.668 9.99935C16.668 13.6743 13.6763 16.666 10.0013 16.666Z" fill="#C7C6CA"/>
</g>
</g>
</g>
</g>
</g>
</g>
<defs>
<clipPath id="clip0_141_38282">
<rect width="1440" height="1668" fill="white" transform="translate(-224 -1558)"/>
</clipPath>
</defs>
</svg>
