<svg width="33" height="32" viewBox="0 0 33 32" fill="none" xmlns="http://www.w3.org/2000/svg">
<g id="Group">
<path id="Vector" d="M13.6927 14.6667C14.4927 14.6667 15.1407 15.2667 15.1261 16.0001C15.1261 16.7334 14.4941 17.3334 13.6927 17.3334C12.9061 17.3334 12.2581 16.7334 12.2581 16.0001C12.2581 15.2667 12.8914 14.6667 13.6927 14.6667ZM18.8234 14.6667C19.6247 14.6667 20.2581 15.2667 20.2581 16.0001C20.2581 16.7334 19.6247 17.3334 18.8234 17.3334C18.0367 17.3334 17.3901 16.7334 17.3901 16.0001C17.3901 15.2667 18.0221 14.6667 18.8234 14.6667ZM25.4461 2.66675C26.9967 2.66675 28.2581 3.95475 28.2581 5.55075V30.6667L25.3101 28.0067L23.6501 26.4387L21.8941 24.7721L22.6221 27.3627H7.07006C5.51939 27.3627 4.25806 26.0747 4.25806 24.4787V5.55075C4.25806 3.95475 5.51939 2.66675 7.07006 2.66675H25.4447H25.4461ZM20.1527 20.9507C23.1834 20.8534 24.3501 18.8227 24.3501 18.8227C24.3501 14.3147 22.3741 10.6601 22.3741 10.6601C20.4007 9.14941 18.5207 9.19075 18.5207 9.19075L18.3287 9.41475C20.6607 10.1427 21.7434 11.1934 21.7434 11.1934C20.4701 10.4761 19.0669 10.0192 17.6154 9.84941C16.6946 9.74542 15.7646 9.75438 14.8461 9.87608C14.7634 9.87608 14.6941 9.89075 14.6127 9.90408C14.1327 9.94675 12.9661 10.1281 11.4994 10.7867C10.9927 11.0241 10.6901 11.1934 10.6901 11.1934C10.6901 11.1934 11.8287 10.0867 14.2967 9.35875L14.1594 9.19075C14.1594 9.19075 12.2807 9.14941 10.3061 10.6614C10.3061 10.6614 8.33139 14.3147 8.33139 18.8227C8.33139 18.8227 9.48339 20.8521 12.5141 20.9507C12.5141 20.9507 13.0207 20.3214 13.4341 19.7894C11.6914 19.2561 11.0341 18.1361 11.0341 18.1361C11.0341 18.1361 11.1701 18.2347 11.4167 18.3747C11.4301 18.3881 11.4434 18.4027 11.4714 18.4161C11.5127 18.4454 11.5541 18.4587 11.5954 18.4867C11.9381 18.6827 12.2807 18.8361 12.5954 18.9627C13.1581 19.1867 13.8301 19.4107 14.6127 19.5654C15.7851 19.7952 16.9906 19.7998 18.1647 19.5787C18.8486 19.4567 19.5158 19.2549 20.1527 18.9774C20.6327 18.7947 21.1674 18.5281 21.7301 18.1507C21.7301 18.1507 21.0447 19.2987 19.2474 19.8174C19.6594 20.3494 20.1541 20.9507 20.1541 20.9507H20.1527Z" fill="#EA1B23"/>
</g>
</svg>
