<svg width="429" height="64" viewBox="0 0 429 64" fill="none" xmlns="http://www.w3.org/2000/svg">
<path d="M0 11.7394V45.2551C0 47.4641 0.913328 49.5747 2.52354 51.0868L13.9653 61.8317C15.4486 63.2246 17.4069 64 19.4418 64H417.211C419.823 64 422.272 62.7241 423.768 60.5825L427.057 55.8755C427.996 54.5319 428.5 52.9322 428.5 51.293V21.7767C428.5 19.5823 427.599 17.4842 426.007 15.9737L411.489 2.19704C410.003 0.786406 408.032 0 405.983 0H12.1997C10.2381 0 8.34484 0.720727 6.8798 2.0252L2.68006 5.76463C0.975184 7.28264 0 9.45667 0 11.7394Z" fill="url(#paint0_linear_149_14670)"/>
<defs>
<linearGradient id="paint0_linear_149_14670" x1="-23.9246" y1="0.146371" x2="0.265344" y2="145.169" gradientUnits="userSpaceOnUse">
<stop stop-color="#00FFF8"/>
<stop offset="0.445099" stop-color="#142F5B"/>
<stop offset="0.854167" stop-color="#940409"/>
</linearGradient>
</defs>
</svg>
