<svg width="22" height="22" viewBox="0 0 22 22" fill="none" xmlns="http://www.w3.org/2000/svg">
<path d="M11.0642 19.9676C6.07573 19.9676 2.03198 15.9239 2.03198 10.9353C2.03198 5.94682 6.07573 1.90308 11.0642 1.90308C16.0528 1.90308 20.0965 5.94682 20.0965 10.9353C20.0965 15.9239 16.0528 19.9676 11.0642 19.9676ZM8.25521 11.9921L8.26695 11.9858L9.05276 14.578C9.15392 14.8589 9.29302 14.9095 9.46192 14.886C9.63172 14.8635 9.72114 14.7722 9.83224 14.6657L10.9053 13.6288L13.2085 15.334C13.6294 15.5662 13.932 15.446 14.0368 14.9439L15.5334 7.87882C15.6987 7.22127 15.4097 6.95753 14.8993 7.16708L6.10824 10.5632C5.5085 10.8035 5.51211 11.1395 5.99985 11.2885L8.25521 11.993V11.9921Z" fill="#EA1B23"/>
</svg>
