<svg width="22" height="22" viewBox="0 0 22 22" fill="none" xmlns="http://www.w3.org/2000/svg">
<path d="M20.1141 5.20552C19.4245 5.51053 18.6933 5.71085 17.9445 5.79984C18.7337 5.32785 19.3244 4.58502 19.6065 3.70978C18.8658 4.15055 18.0538 4.45945 17.2075 4.62655C16.639 4.0183 15.8855 3.6149 15.0641 3.47908C14.2427 3.34325 13.3994 3.48261 12.6654 3.87548C11.9314 4.26834 11.3477 4.89272 11.0051 5.65152C10.6626 6.41033 10.5803 7.26106 10.7711 8.07145C9.26913 7.99617 7.79978 7.60586 6.45845 6.92586C5.11712 6.24586 3.93379 5.29137 2.98529 4.12436C2.64955 4.70102 2.47312 5.35656 2.47406 6.02384C2.47406 7.33352 3.14065 8.49055 4.15407 9.16797C3.55433 9.14909 2.9678 8.98713 2.44336 8.69558V8.74255C2.44354 9.6148 2.74537 10.4601 3.29767 11.1352C3.84997 11.8104 4.61876 12.2737 5.47368 12.4467C4.91694 12.5976 4.33318 12.6198 3.76658 12.5117C4.00762 13.2625 4.47743 13.9191 5.11021 14.3896C5.743 14.8601 6.50708 15.1209 7.29548 15.1356C6.51192 15.751 5.61474 16.2059 4.65525 16.4743C3.69575 16.7427 2.69276 16.8194 1.70361 16.7C3.43031 17.8104 5.44035 18.4 7.49329 18.398C14.4418 18.398 18.2417 12.6418 18.2417 7.64965C18.2417 7.48707 18.2372 7.32268 18.2299 7.16191C18.9696 6.62735 19.6079 5.96515 20.115 5.20642L20.1141 5.20552Z" fill="#EA1B23"/>
</svg>
